<svg xmlns="http://www.w3.org/2000/svg" width="2400" height="1400" viewBox="0 0 2400 1400">
<defs>
<linearGradient id="sky" x1="0" y1="0" x2="0" y2="1">
<stop offset="0" stop-color="#0e0d0c"/><stop offset="0.72" stop-color="#2e2317"/><stop offset="1" stop-color="#0a0908"/>
</linearGradient>
<radialGradient id="glow" cx="50%" cy="60%" r="55%">
<stop offset="0" stop-color="#eab26a" stop-opacity="0.85"/><stop offset="1" stop-color="#eab26a" stop-opacity="0"/>
</radialGradient>
<filter id="grain"><feTurbulence type="fractalNoise" baseFrequency="0.9" numOctaves="2" stitchTiles="stitch"/><feColorMatrix type="saturate" values="0"/><feComponentTransfer><feFuncA type="linear" slope="0.05"/></feComponentTransfer><feComposite operator="over" in2="SourceGraphic"/></filter>
</defs>
<rect width="2400" height="1400" fill="url(#sky)"/>
<rect width="2400" height="1400" fill="url(#glow)"/>
<g><rect x="0" y="0" width="96" height="1400" fill="#000000" opacity="0.22" transform="skewX(-8)"/><rect x="218" y="0" width="96" height="1400" fill="#000000" opacity="0.22" transform="skewX(-8)"/><rect x="436" y="0" width="96" height="1400" fill="#000000" opacity="0.22" transform="skewX(-8)"/><rect x="655" y="0" width="96" height="1400" fill="#000000" opacity="0.22" transform="skewX(-8)"/><rect x="873" y="0" width="96" height="1400" fill="#000000" opacity="0.22" transform="skewX(-8)"/><rect x="1091" y="0" width="96" height="1400" fill="#000000" opacity="0.22" transform="skewX(-8)"/><rect x="1309" y="0" width="96" height="1400" fill="#000000" opacity="0.22" transform="skewX(-8)"/><rect x="1527" y="0" width="96" height="1400" fill="#000000" opacity="0.22" transform="skewX(-8)"/><rect x="1745" y="0" width="96" height="1400" fill="#000000" opacity="0.22" transform="skewX(-8)"/><rect x="1964" y="0" width="96" height="1400" fill="#000000" opacity="0.22" transform="skewX(-8)"/><rect x="2182" y="0" width="96" height="1400" fill="#000000" opacity="0.22" transform="skewX(-8)"/></g>
<rect y="1148" width="2400" height="252" fill="#0a0908" opacity="0.9"/>
<rect width="2400" height="1400" fill="#ffffff" opacity="0.02" filter="url(#grain)"/>
<text x="36" y="1370" font-family="monospace" font-size="26" fill="#ffffff" opacity="0.28">podmien na: assets/img/emotion.jpg</text>
</svg>