<svg xmlns="http://www.w3.org/2000/svg" width="1800" height="1350" viewBox="0 0 1800 1350">
<defs>
<linearGradient id="sky" x1="0" y1="0" x2="0" y2="1">
<stop offset="0" stop-color="#1c1b19"/><stop offset="0.72" stop-color="#41403c"/><stop offset="1" stop-color="#131211"/>
</linearGradient>
<radialGradient id="glow" cx="60%" cy="60%" r="55%">
<stop offset="0" stop-color="#b9a98e" stop-opacity="0.85"/><stop offset="1" stop-color="#b9a98e" stop-opacity="0"/>
</radialGradient>
<filter id="grain"><feTurbulence type="fractalNoise" baseFrequency="0.9" numOctaves="2" stitchTiles="stitch"/><feColorMatrix type="saturate" values="0"/><feComponentTransfer><feFuncA type="linear" slope="0.05"/></feComponentTransfer><feComposite operator="over" in2="SourceGraphic"/></filter>
</defs>
<rect width="1800" height="1350" fill="url(#sky)"/>
<rect width="1800" height="1350" fill="url(#glow)"/>
<g><rect x="0" y="0" width="72" height="1350" fill="#000000" opacity="0.3" transform="skewX(-8)"/><rect x="164" y="0" width="72" height="1350" fill="#000000" opacity="0.3" transform="skewX(-8)"/><rect x="327" y="0" width="72" height="1350" fill="#000000" opacity="0.3" transform="skewX(-8)"/><rect x="491" y="0" width="72" height="1350" fill="#000000" opacity="0.3" transform="skewX(-8)"/><rect x="655" y="0" width="72" height="1350" fill="#000000" opacity="0.3" transform="skewX(-8)"/><rect x="818" y="0" width="72" height="1350" fill="#000000" opacity="0.3" transform="skewX(-8)"/><rect x="982" y="0" width="72" height="1350" fill="#000000" opacity="0.3" transform="skewX(-8)"/><rect x="1145" y="0" width="72" height="1350" fill="#000000" opacity="0.3" transform="skewX(-8)"/><rect x="1309" y="0" width="72" height="1350" fill="#000000" opacity="0.3" transform="skewX(-8)"/><rect x="1473" y="0" width="72" height="1350" fill="#000000" opacity="0.3" transform="skewX(-8)"/><rect x="1636" y="0" width="72" height="1350" fill="#000000" opacity="0.3" transform="skewX(-8)"/></g>
<rect y="1107" width="1800" height="243" fill="#131211" opacity="0.9"/>
<rect width="1800" height="1350" fill="#ffffff" opacity="0.02" filter="url(#grain)"/>
<text x="36" y="1320" font-family="monospace" font-size="20" fill="#ffffff" opacity="0.28">podmien na: assets/img/offer-side.jpg</text>
</svg>